:SAMPLES-PER-SECOND 30
:FULLY-SPECIFIED
:DEGREES
293
root  40.6163 45.5109 4.2204 74.8433 89.5321 78.1791
RightUpLeg  -19.9054 -13.6052 -24.638
RightLeg  127.498 -10.5464 13.0988
RightFoot  4.75157 -0.531183 4.0391
RightToes  -5.8209e-011 0 -3.6325e-017
Spine  25.054 4.92997 3.58624
Spine1  -5.65953 3.0068 3.44135
HEad  -14.8673 3.66511 -11.0694
LeftShoulder1  0.00879571 3.45821 -12.7595
LeftArm  -19.037 -3.44998 -30.6976
LeftForeArm  77.7486 -77.9094 -109.133
LeftHand  -0.190793 1.92889 6.16916
RightShoulder  -0.13065 -4.00946 18.0367
RightArm  -15.7252 12.0155 38.1719
RightForeArm  100.121 71.6284 140.885
RightHand  -0.408213 1.02429 -7.50792
LeftUpLeg  -65.1375 17.2287 2.02431
LeftLeg  50.39 -3.47533 -4.04626
LeftFoot  11.5175 2.38973 -12.1112
LeftToes  8.00323e-011 7.86695e-011 -1.03868e-010
294
root  42.5076 44.6729 3.64056 -35.6845 84.8192 -27.2155
RightUpLeg  -24.5919 -11.8093 -25.7181
RightLeg  139.583 -11.4533 9.46615
RightFoot  3.18089 0.374792 -2.82567
RightToes  -5.8209e-011 0 -3.6325e-017
Spine  30.8828 2.83338 12.9497
Spine1  -5.26386 4.50414 -2.24936
HEad  -10.3679 5.56722 -13.0501
LeftShoulder1  -0.15051 4.22249 -13.8271
LeftArm  -17.141 -2.46812 -32.2198
LeftForeArm  81.792 -77.6818 -112.399
LeftHand  -0.198415 1.92132 6.4203
RightShoulder  -0.196812 -4.25842 18.6696
RightArm  -16.155 12.4514 35.8918
RightForeArm  99.4438 71.9189 140.097
RightHand  -0.354295 0.831546 -6.73131
LeftUpLeg  -51.2698 19.2062 6.92254
LeftLeg  42.0506 -6.10163 -5.46584
LeftFoot  16.4335 4.00311 -16.451
LeftToes  8.00323e-011 7.86695e-011 -1.03868e-010
295
root  44.6256 43.5861 2.98105 -54.4732 79.7693 -40.8179
RightUpLeg  -30.0145 -14.1302 -23.2822
RightLeg  143.469 -9.78698 7.15081
RightFoot  0.228566 0.486079 -4.64778
RightToes  -5.8209e-011 0 -3.6325e-017
Spine  34.9844 -0.383132 22.0093
Spine1  -2.01921 6.20029 -7.76485
HEad  -4.85653 6.3994 -14.824
LeftShoulder1  -0.266379 4.71562 -15.1528
LeftArm  -16.74 -0.113011 -34.15
LeftForeArm  88.5668 -77.2538 -117.509
LeftHand  -0.207019 1.28703 5.69437
RightShoulder  -0.156102 -4.11169 18.0096
RightArm  -16.29 12.3991 34.1737
RightForeArm  97.6244 72.3873 138.683
RightHand  -0.328167 1.29342 -5.82437
LeftUpLeg  -35.9626 22.059 12.7157
LeftLeg  32.2913 -10.455 -6.63727
LeftFoot  21.6583 5.70357 -19.6195
LeftToes  8.00323e-011 7.86695e-011 -1.03868e-010
296
root  46.961 42.179 2.39881 -57.9112 73.6441 -39.2071
RightUpLeg  -35.3399 -20.0831 -15.1956
RightLeg  138.468 -5.25424 4.77374
RightFoot  -1.43391 0.102497 -1.38796
RightToes  -5.8209e-011 0 -3.6325e-017
Spine  38.463 -3.55745 28.7877
Spine1  0.945847 8.00502 -10.8927
HEad  -0.987676 8.34639 -15.9772
LeftShoulder1  -0.33849 5.06102 -14.7801
LeftArm  -17.0274 4.08916 -37.0927
LeftForeArm  96.7061 -76.3228 -124.566
LeftHand  -0.304918 -0.141715 6.47129
RightShoulder  -0.122774 -4.01292 16.3683
RightArm  -15.414 11.1247 34.776
RightForeArm  96.0746 72.8304 137.288
RightHand  -0.376095 1.44296 -6.53941
LeftUpLeg  -21.0508 27.4324 20.0835
LeftLeg  25.0023 -16.2068 -7.8159
LeftFoot  23.6374 6.00558 -19.384
LeftToes  8.00323e-011 7.86695e-011 -1.03868e-010
297
root  49.2525 40.3267 2.0658 -58.8419 68.0106 -36.6256
RightUpLeg  -41.2368 -24.5281 -4.02819
RightLeg  127.62 -1.81963 2.84632
RightFoot  -3.46519 -0.0956321 1.37444
RightToes  -5.8209e-011 0 -3.6325e-017
Spine  44.4883 -5.10778 30.1757
Spine1  -3.46917 9.14757 -9.87855
HEad  5.73991 11.9591 -15.3908
LeftShoulder1  -0.463188 5.56856 -15.5915
LeftArm  -16.8403 10.4827 -36.8285
LeftForeArm  108.891 -73.7932 -136.43
LeftHand  -0.241595 1.01464 6.40408
RightShoulder  -0.053667 -3.71215 15.108
RightArm  -12.6944 8.23638 35.139
RightForeArm  96.8377 72.7597 137.573
RightHand  -0.34143 1.61545 -5.79973
LeftUpLeg  -8.21122 34.7081 28.2288
LeftLeg  20.7732 -17.5431 -6.93591
LeftFoot  24.1182 6.22902 -20.1543
LeftToes  8.00323e-011 7.86695e-011 -1.03868e-010
298
root  51.2267 37.941 2.07024 -52.8377 66.0625 -29.1428
RightUpLeg  -46.9394 -25.1228 3.39085
RightLeg  113.812 -1.26618 3.54841
RightFoot  -7.17327 -0.3331 7.66411
RightToes  -5.8209e-011 0 -3.6325e-017
Spine  48.6683 -2.9302 24.5621
Spine1  -6.59089 9.7696 -7.288
HEad  1.09102 12.603 -14.1108
LeftShoulder1  -0.4749 5.53842 -16.6614
LeftArm  -17.6378 14.2874 -35.4912
LeftForeArm  115.249 -71.0094 -144.232
LeftHand  -0.184023 2.23938 6.57664
RightShoulder  0.0544488 -3.217 13.0844
RightArm  -11.8422 5.02934 35.4932
RightForeArm  98.3968 71.5082 140.943
RightHand  -0.415889 1.82698 -6.86211
LeftUpLeg  -1.17371 36.7314 31.0078
LeftLeg  23.0973 -14.8923 -6.55722
LeftFoot  21.4642 5.11942 -14.9625
LeftToes  8.00323e-011 7.86695e-011 -1.03868e-010
299
root  52.7345 35.5072 2.50097 -44.6788 69.3981 -22.7601
RightUpLeg  -51.4695 -23.7105 6.02631
RightLeg  96.3821 -0.701095 7.53906
RightFoot  -8.28575 -0.394508 12.5016
RightToes  -5.8209e-011 0 -3.6325e-017
Spine  49.1635 0.919163 13.9224
Spine1  -8.61157 8.62118 -5.49939
HEad  -10.3003 9.47192 -10.7466
LeftShoulder1  -0.513007 5.88943 -14.4817
LeftArm  -18.2377 13.6465 -35.8583
LeftForeArm  117.797 -70.0087 -146.421
LeftHand  -0.255382 0.589459 6.14782
RightShoulder  -0.0404226 -3.65519 15.8447
RightArm  -13.2417 4.93666 32.5555
RightForeArm  101.154 69.8786 144.703
RightHand  -0.38966 1.67749 -6.56525
LeftUpLeg  -9.43179 30.5213 22.9865
LeftLeg  38.7105 -9.90101 -7.68762
LeftFoot  -0.257656 -0.989572 6.33028
LeftToes  8.00323e-011 7.86695e-011 -1.03868e-010
300
root  53.778 33.5132 3.12307 -33.9508 75.0094 -16.1487
RightUpLeg  -52.1463 -16.9968 3.76362
RightLeg  74.7673 3.59336 13.2542
RightFoot  -5.63355 -0.852682 15.8605
RightToes  -5.8209e-011 0 -3.6325e-017
Spine  48.4102 3.97505 3.68775
Spine1  -9.43085 6.51761 -0.989618
HEad  -16.5113 6.15622 -6.37504
LeftShoulder1  -0.265823 4.77245 -13.8496
LeftArm  -19.2541 8.81484 -36.7723
LeftForeArm  115.526 -70.6535 -144.936
LeftHand  -0.281331 0.968264 7.33949
RightShoulder  -0.200641 -4.34345 16.4976
RightArm  -17.7077 5.19972 34.4191
RightForeArm  103.46 68.5532 147.334
RightHand  -0.420003 1.35617 -7.34498
LeftUpLeg  -23.607 22.6477 13.728
LeftLeg  53.4244 -2.71311 -3.66379
LeftFoot  -4.50569 -0.496887 8.47429
LeftToes  8.00323e-011 7.86695e-011 -1.03868e-010
301
root  54.8581 31.9052 3.57117 -27.5203 80.8131 -14.8059
RightUpLeg  -49.3895 -8.20246 -1.26155
RightLeg  54.6896 11.3582 16.5984
RightFoot  0.126071 -2.16388 21.042
RightToes  -5.8209e-011 0 -3.6325e-017
Spine  42.9412 2.96085 -0.288192
Spine1  -2.18546 3.93976 -1.31189
HEad  -25.3193 3.69856 -3.47279
LeftShoulder1  0.0192376 3.41988 -13.8312
LeftArm  -22.1056 -1.25634 -37.7233
LeftForeArm  106.817 -73.5081 -136.696
LeftHand  -0.285241 0.90052 7.34117
RightShoulder  -0.0861797 -3.86466 15.8758
RightArm  -24.7572 7.25667 37.6769
RightForeArm  105.282 68.9081 146.881
RightHand  -0.334034 1.39609 -5.89787
LeftUpLeg  -34.6735 17.1009 8.52615
LeftLeg  63.2418 -1.29099 -2.18603
LeftFoot  -9.28731 -0.0886068 7.35725
LeftToes  8.00323e-011 7.86695e-011 -1.03868e-010
302
root  55.9565 30.7542 3.90556 -13.8809 88.045 -3.79797
RightUpLeg  -45.8984 -2.27818 -7.40542
RightLeg  45.6259 14.4124 15.0303
RightFoot  3.75374 -2.6987 21.5633
RightToes  -5.8209e-011 0 -3.6325e-017
Spine  41.8891 1.26925 -2.12542
Spine1  0.629237 1.6554 -2.08085
HEad  -28.6185 -0.216243 -2.38759
LeftShoulder1  0.106921 3.01796 -15.1489
LeftArm  -20.7095 -14.5067 -38.8871
LeftForeArm  87.1212 -77.31 -116.758
LeftHand  -0.299484 0.797878 7.53907
RightShoulder  -0.085372 -3.86948 14.5055
RightArm  -29.8612 8.52377 36.293
RightForeArm  101.759 70.4213 143.701
RightHand  -0.312257 2.06415 -5.01061
LeftUpLeg  -40.5308 11.3169 4.18232
LeftLeg  69.3301 -0.923697 -1.88135
LeftFoot  -14.0423 0.22001 5.43652
LeftToes  8.00323e-011 7.86695e-011 -1.03868e-010
303
root  56.5928 30.2297 4.35799 176.164 85.2187 -174.175
RightUpLeg  -46.5194 -0.10493 -8.7611
RightLeg  49.475 9.77308 11.5739
RightFoot  7.96428 -0.824695 4.81801
RightToes  -5.8209e-011 0 -3.6325e-017
Spine  45.7787 0.0614327 -1.00918
Spine1  -0.256139 -0.743714 1.30091
HEad  -30.5389 -3.2862 -1.18955
LeftShoulder1  0.247258 2.31402 -14.0349
LeftArm  -18.3721 -22.7747 -42.619
LeftForeArm  69.5399 -78.6172 -97.6756
LeftHand  -0.335303 0.660981 8.25007
RightShoulder  0.0847797 -3.04962 12.2977
RightArm  -34.5702 6.34528 33.3789
RightForeArm  97.1111 72.0786 139.491
RightHand  -0.21208 0.813393 -4.08565
LeftUpLeg  -42.5859 5.7747 3.43206
LeftLeg  72.0075 -1.12311 -2.9576
LeftFoot  -15.5791 0.286497 5.18547
LeftToes  8.00323e-011 7.86695e-011 -1.03868e-010
304
root  57.2786 29.8318 4.97529 173.321 80.4636 -176.99
RightUpLeg  -48.2544 2.08669 -10.8937
RightLeg  55.1865 5.29333 7.83173
RightFoot  5.1099 -0.911462 6.5161
RightToes  -5.8209e-011 0 -3.6325e-017
Spine  48.7378 -1.30544 0.564383
Spine1  0.00818041 -0.708359 -0.347116
HEad  -32.2489 -6.68542 -1.34692
LeftShoulder1  0.607445 0.528567 -13.2408
LeftArm  -18.0643 -32.096 -44.5187
LeftForeArm  57.3743 -78.6472 -84.9431
LeftHand  -0.332527 1.07514 8.89295
RightShoulder  0.0904979 -2.96902 9.97985
RightArm  -40.4636 6.21274 29.3842
RightForeArm  85.1592 74.3874 130.474
RightHand  -0.218658 2.04049 -3.60944
LeftUpLeg  -43.5476 2.25346 4.05444
LeftLeg  74.3024 -1.36706 -4.40067
LeftFoot  -16.993 0.35211 5.07644
LeftToes  8.00323e-011 7.86695e-011 -1.03868e-010
305
root  57.8784 30.1023 5.36477 177.124 76.6834 -176.946
RightUpLeg  -50.3141 0.755061 -11.6158
RightLeg  55.3027 4.02777 5.83661
RightFoot  3.6949 -0.685618 5.39311
RightToes  -5.8209e-011 0 -3.6325e-017
Spine  46.6993 -1.97806 1.86202
Spine1  3.15095 -1.80142 2.06152
HEad  -35.592 -8.88389 -0.476039
LeftShoulder1  0.570569 0.380956 -11.6448
LeftArm  -18.3369 -41.9721 -48.7139
LeftForeArm  39.9855 -77.802 -67.3128
LeftHand  -0.367244 0.639678 8.98184
RightShoulder  0.0918698 -2.93263 8.8104
RightArm  -44.878 10.3875 25.318
RightForeArm  54.4008 77.6291 102.746
RightHand  -0.212386 3.93392 -2.91222
LeftUpLeg  -46.6203 -1.46636 4.46035
LeftLeg  73.0553 -1.51188 -4.61288
LeftFoot  -17.1323 0.314894 4.1421
LeftToes  8.00323e-011 7.86695e-011 -1.03868e-010
